<svg xmlns="http://www.w3.org/2000/svg" xmlns:xlink="http://www.w3.org/1999/xlink" width="500" zoomAndPan="magnify" viewBox="0 0 375 374.999991" height="500" preserveAspectRatio="xMidYMid meet" version="1.0"><defs><g/><clipPath id="1ff7340f61"><path d="M 218.683594 154.917969 L 248.128906 154.917969 L 248.128906 184.359375 L 218.683594 184.359375 Z M 218.683594 154.917969 " clip-rule="nonzero"/></clipPath><clipPath id="2950e9f084"><path d="M 233.40625 154.917969 C 225.277344 154.917969 218.683594 161.507812 218.683594 169.636719 C 218.683594 177.769531 225.277344 184.359375 233.40625 184.359375 C 241.539062 184.359375 248.128906 177.769531 248.128906 169.636719 C 248.128906 161.507812 241.539062 154.917969 233.40625 154.917969 Z M 233.40625 154.917969 " clip-rule="nonzero"/></clipPath><clipPath id="4908ee959e"><path d="M 221 137.429688 L 250 137.429688 L 250 183.179688 L 221 183.179688 Z M 221 137.429688 " clip-rule="nonzero"/></clipPath></defs><rect x="-37.5" width="450" fill="#ffffff" y="-37.499999" height="449.999989" fill-opacity="1"/><rect x="-37.5" width="450" fill="#ffffff" y="-37.499999" height="449.999989" fill-opacity="1"/><g fill="#f1c90a" fill-opacity="1"><g transform="translate(30.295365, 219.691424)"><g><path d="M 33.046875 -12.734375 L 34.234375 -13.609375 C 35.742188 -14.492188 36.804688 -14.9375 37.421875 -14.9375 C 38.796875 -14.9375 40.28125 -13.695312 41.875 -11.21875 C 42.84375 -9.664062 43.328125 -8.425781 43.328125 -7.5 C 43.328125 -6.570312 43.03125 -5.796875 42.4375 -5.171875 C 41.84375 -4.554688 41.144531 -4.003906 40.34375 -3.515625 C 39.550781 -3.023438 38.789062 -2.554688 38.0625 -2.109375 C 37.332031 -1.671875 35.835938 -1.097656 33.578125 -0.390625 C 31.316406 0.304688 29.132812 0.65625 27.03125 0.65625 C 24.9375 0.65625 22.816406 0.378906 20.671875 -0.171875 C 18.523438 -0.722656 16.3125 -1.648438 14.03125 -2.953125 C 11.757812 -4.253906 9.710938 -5.84375 7.890625 -7.71875 C 6.078125 -9.601562 4.582031 -12.015625 3.40625 -14.953125 C 2.238281 -17.898438 1.65625 -21.097656 1.65625 -24.546875 C 1.65625 -28.003906 2.226562 -31.132812 3.375 -33.9375 C 4.53125 -36.75 6.003906 -39.070312 7.796875 -40.90625 C 9.585938 -42.75 11.632812 -44.285156 13.9375 -45.515625 C 18.269531 -47.910156 22.628906 -49.109375 27.015625 -49.109375 C 29.085938 -49.109375 31.195312 -48.785156 33.34375 -48.140625 C 35.488281 -47.503906 37.113281 -46.851562 38.21875 -46.1875 L 39.8125 -45.25 C 40.613281 -44.769531 41.234375 -44.375 41.671875 -44.0625 C 42.828125 -43.132812 43.40625 -42.082031 43.40625 -40.90625 C 43.40625 -39.738281 42.9375 -38.515625 42 -37.234375 C 40.28125 -34.835938 38.734375 -33.640625 37.359375 -33.640625 C 36.566406 -33.640625 35.4375 -34.128906 33.96875 -35.109375 C 32.113281 -36.609375 29.640625 -37.359375 26.546875 -37.359375 C 23.671875 -37.359375 20.835938 -36.363281 18.046875 -34.375 C 16.722656 -33.40625 15.617188 -32.035156 14.734375 -30.265625 C 13.847656 -28.492188 13.40625 -26.488281 13.40625 -24.25 C 13.40625 -22.019531 13.847656 -20.019531 14.734375 -18.25 C 15.617188 -16.476562 16.742188 -15.082031 18.109375 -14.0625 C 20.804688 -12.113281 23.617188 -11.140625 26.546875 -11.140625 C 27.910156 -11.140625 29.203125 -11.316406 30.421875 -11.671875 C 31.640625 -12.023438 32.515625 -12.378906 33.046875 -12.734375 Z M 33.046875 -12.734375 "/></g></g></g><g fill="#f1c90a" fill-opacity="1"><g transform="translate(75.347843, 219.691424)"><g><path d="M 1.65625 -17.453125 C 1.65625 -22.765625 3.515625 -27.144531 7.234375 -30.59375 C 10.953125 -34.039062 15.195312 -35.765625 19.96875 -35.765625 C 24.75 -35.765625 28.972656 -34.050781 32.640625 -30.625 C 36.316406 -27.195312 38.15625 -22.828125 38.15625 -17.515625 C 38.15625 -13.847656 37.203125 -10.585938 35.296875 -7.734375 C 33.398438 -4.878906 31.085938 -2.773438 28.359375 -1.421875 C 25.640625 -0.078125 22.820312 0.59375 19.90625 0.59375 C 16.988281 0.59375 14.15625 -0.125 11.40625 -1.5625 C 8.664062 -3 6.351562 -5.117188 4.46875 -7.921875 C 2.59375 -10.734375 1.65625 -13.910156 1.65625 -17.453125 Z M 15.53125 -12.703125 C 16.945312 -11.617188 18.382812 -11.078125 19.84375 -11.078125 C 21.300781 -11.078125 22.757812 -11.628906 24.21875 -12.734375 C 25.675781 -13.847656 26.40625 -15.488281 26.40625 -17.65625 C 26.40625 -19.820312 25.71875 -21.4375 24.34375 -22.5 C 22.976562 -23.5625 21.5 -24.09375 19.90625 -24.09375 C 18.3125 -24.09375 16.828125 -23.535156 15.453125 -22.421875 C 14.085938 -21.316406 13.40625 -19.691406 13.40625 -17.546875 C 13.40625 -15.398438 14.113281 -13.785156 15.53125 -12.703125 Z M 15.53125 -12.703125 "/></g></g></g><g fill="#f1c90a" fill-opacity="1"><g transform="translate(115.158581, 219.691424)"><g><path d="M 14.0625 -30.328125 C 16.144531 -33.460938 18.644531 -35.03125 21.5625 -35.03125 C 26.070312 -35.03125 29.4375 -33.109375 31.65625 -29.265625 C 32.144531 -29.929688 32.726562 -30.628906 33.40625 -31.359375 C 34.09375 -32.085938 35.1875 -32.878906 36.6875 -33.734375 C 38.195312 -34.597656 39.75 -35.03125 41.34375 -35.03125 C 44.882812 -35.03125 47.847656 -33.671875 50.234375 -30.953125 C 52.617188 -28.234375 53.8125 -23.734375 53.8125 -17.453125 L 53.8125 -5.84375 C 53.8125 -4.820312 53.78125 -4.054688 53.71875 -3.546875 C 53.65625 -3.035156 53.445312 -2.453125 53.09375 -1.796875 C 52.507812 -0.597656 50.804688 0 47.984375 0 C 45.191406 0 43.488281 -0.617188 42.875 -1.859375 C 42.5625 -2.523438 42.367188 -3.109375 42.296875 -3.609375 C 42.234375 -4.117188 42.203125 -4.882812 42.203125 -5.90625 L 42.203125 -17.515625 C 42.203125 -21.367188 40.832031 -23.296875 38.09375 -23.296875 C 36.539062 -23.296875 35.488281 -22.785156 34.9375 -21.765625 C 34.382812 -20.742188 34.109375 -19.304688 34.109375 -17.453125 L 34.109375 -5.84375 C 34.109375 -4.78125 34.070312 -4.003906 34 -3.515625 C 33.9375 -3.023438 33.726562 -2.453125 33.375 -1.796875 C 32.757812 -0.597656 31.035156 0 28.203125 0 C 25.410156 0 23.707031 -0.617188 23.09375 -1.859375 C 22.78125 -2.523438 22.585938 -3.109375 22.515625 -3.609375 C 22.453125 -4.117188 22.421875 -4.882812 22.421875 -5.90625 L 22.421875 -17.515625 C 22.421875 -21.367188 21.050781 -23.296875 18.3125 -23.296875 C 15.65625 -23.296875 14.328125 -21.367188 14.328125 -17.515625 L 14.328125 -5.765625 C 14.328125 -4.753906 14.296875 -3.992188 14.234375 -3.484375 C 14.171875 -2.972656 13.960938 -2.382812 13.609375 -1.71875 C 12.941406 -0.570312 11.210938 0 8.421875 0 C 5.640625 0 3.9375 -0.597656 3.3125 -1.796875 C 3.007812 -2.453125 2.820312 -3.023438 2.75 -3.515625 C 2.6875 -4.003906 2.65625 -4.78125 2.65625 -5.84375 L 2.65625 -29.203125 C 2.65625 -30.210938 2.6875 -30.972656 2.75 -31.484375 C 2.820312 -31.992188 3.035156 -32.554688 3.390625 -33.171875 C 4.046875 -34.367188 5.613281 -34.96875 8.09375 -34.96875 C 10.570312 -34.96875 12.1875 -34.566406 12.9375 -33.765625 C 13.6875 -32.972656 14.0625 -31.828125 14.0625 -30.328125 Z M 14.0625 -30.328125 "/></g></g></g><g fill="#f1c90a" fill-opacity="1"><g transform="translate(171.623481, 219.691424)"><g><path d="M 14.0625 -30.328125 C 16.144531 -33.460938 18.644531 -35.03125 21.5625 -35.03125 C 26.070312 -35.03125 29.4375 -33.109375 31.65625 -29.265625 C 32.144531 -29.929688 32.726562 -30.628906 33.40625 -31.359375 C 34.09375 -32.085938 35.1875 -32.878906 36.6875 -33.734375 C 38.195312 -34.597656 39.75 -35.03125 41.34375 -35.03125 C 44.882812 -35.03125 47.847656 -33.671875 50.234375 -30.953125 C 52.617188 -28.234375 53.8125 -23.734375 53.8125 -17.453125 L 53.8125 -5.84375 C 53.8125 -4.820312 53.78125 -4.054688 53.71875 -3.546875 C 53.65625 -3.035156 53.445312 -2.453125 53.09375 -1.796875 C 52.507812 -0.597656 50.804688 0 47.984375 0 C 45.191406 0 43.488281 -0.617188 42.875 -1.859375 C 42.5625 -2.523438 42.367188 -3.109375 42.296875 -3.609375 C 42.234375 -4.117188 42.203125 -4.882812 42.203125 -5.90625 L 42.203125 -17.515625 C 42.203125 -21.367188 40.832031 -23.296875 38.09375 -23.296875 C 36.539062 -23.296875 35.488281 -22.785156 34.9375 -21.765625 C 34.382812 -20.742188 34.109375 -19.304688 34.109375 -17.453125 L 34.109375 -5.84375 C 34.109375 -4.78125 34.070312 -4.003906 34 -3.515625 C 33.9375 -3.023438 33.726562 -2.453125 33.375 -1.796875 C 32.757812 -0.597656 31.035156 0 28.203125 0 C 25.410156 0 23.707031 -0.617188 23.09375 -1.859375 C 22.78125 -2.523438 22.585938 -3.109375 22.515625 -3.609375 C 22.453125 -4.117188 22.421875 -4.882812 22.421875 -5.90625 L 22.421875 -17.515625 C 22.421875 -21.367188 21.050781 -23.296875 18.3125 -23.296875 C 15.65625 -23.296875 14.328125 -21.367188 14.328125 -17.515625 L 14.328125 -5.765625 C 14.328125 -4.753906 14.296875 -3.992188 14.234375 -3.484375 C 14.171875 -2.972656 13.960938 -2.382812 13.609375 -1.71875 C 12.941406 -0.570312 11.210938 0 8.421875 0 C 5.640625 0 3.9375 -0.597656 3.3125 -1.796875 C 3.007812 -2.453125 2.820312 -3.023438 2.75 -3.515625 C 2.6875 -4.003906 2.65625 -4.78125 2.65625 -5.84375 L 2.65625 -29.203125 C 2.65625 -30.210938 2.6875 -30.972656 2.75 -31.484375 C 2.820312 -31.992188 3.035156 -32.554688 3.390625 -33.171875 C 4.046875 -34.367188 5.613281 -34.96875 8.09375 -34.96875 C 10.570312 -34.96875 12.1875 -34.566406 12.9375 -33.765625 C 13.6875 -32.972656 14.0625 -31.828125 14.0625 -30.328125 Z M 14.0625 -30.328125 "/></g></g></g><g fill="#f1c90a" fill-opacity="1"><g transform="translate(228.088381, 219.691424)"><g><path d="M 2.65625 -29.125 C 2.65625 -30.144531 2.6875 -30.910156 2.75 -31.421875 C 2.820312 -31.929688 3.007812 -32.515625 3.3125 -33.171875 C 3.9375 -34.328125 5.664062 -34.90625 8.5 -34.90625 C 10.613281 -34.90625 12.113281 -34.53125 13 -33.78125 C 13.757812 -33.15625 14.160156 -32.203125 14.203125 -30.921875 C 14.242188 -30.484375 14.265625 -29.84375 14.265625 -29 L 14.265625 -5.765625 C 14.265625 -4.753906 14.226562 -3.992188 14.15625 -3.484375 C 14.09375 -2.972656 13.882812 -2.382812 13.53125 -1.71875 C 12.957031 -0.570312 11.253906 0 8.421875 0 C 5.640625 0 3.9375 -0.597656 3.3125 -1.796875 C 3.007812 -2.453125 2.820312 -3.023438 2.75 -3.515625 C 2.6875 -4.003906 2.65625 -4.78125 2.65625 -5.84375 Z M 13.5625 -41.4375 C 13.238281 -40.800781 12.65625 -40.347656 11.8125 -40.078125 C 10.96875 -39.816406 9.847656 -39.6875 8.453125 -39.6875 C 7.066406 -39.6875 5.953125 -39.816406 5.109375 -40.078125 C 4.265625 -40.347656 3.675781 -40.8125 3.34375 -41.46875 C 3.019531 -42.132812 2.820312 -42.722656 2.75 -43.234375 C 2.6875 -43.742188 2.65625 -44.503906 2.65625 -45.515625 C 2.65625 -46.535156 2.6875 -47.300781 2.75 -47.8125 C 2.820312 -48.320312 3.007812 -48.882812 3.3125 -49.5 C 3.9375 -50.695312 5.664062 -51.296875 8.5 -51.296875 C 11.28125 -51.296875 12.957031 -50.695312 13.53125 -49.5 C 13.882812 -48.84375 14.09375 -48.257812 14.15625 -47.75 C 14.226562 -47.238281 14.265625 -46.472656 14.265625 -45.453125 C 14.265625 -44.441406 14.226562 -43.679688 14.15625 -43.171875 C 14.09375 -42.660156 13.894531 -42.082031 13.5625 -41.4375 Z M 13.5625 -41.4375 "/></g></g></g><g fill="#f1c90a" fill-opacity="1"><g transform="translate(245.007957, 219.691424)"><g><path d="M 22.953125 -23.21875 L 18.640625 -23.484375 L 18.640625 -14.328125 C 18.640625 -13.140625 18.828125 -12.28125 19.203125 -11.75 C 19.585938 -11.21875 20.296875 -10.953125 21.328125 -10.953125 C 22.367188 -10.953125 23.164062 -10.914062 23.71875 -10.84375 C 24.269531 -10.78125 24.859375 -10.570312 25.484375 -10.21875 C 26.503906 -9.644531 27.015625 -8.160156 27.015625 -5.765625 C 27.015625 -2.984375 26.394531 -1.28125 25.15625 -0.65625 C 24.488281 -0.351562 23.898438 -0.164062 23.390625 -0.09375 C 22.878906 -0.03125 22.140625 0 21.171875 0 C 16.566406 0 13.066406 -1.035156 10.671875 -3.109375 C 8.285156 -5.191406 7.09375 -8.710938 7.09375 -13.671875 L 7.09375 -23.484375 C 6.257812 -23.359375 5.351562 -23.296875 4.375 -23.296875 C 3.40625 -23.296875 2.597656 -23.671875 1.953125 -24.421875 C 1.316406 -25.171875 1 -26.453125 1 -28.265625 C 1 -30.078125 1.109375 -31.390625 1.328125 -32.203125 C 1.546875 -33.023438 1.851562 -33.613281 2.25 -33.96875 C 2.957031 -34.550781 3.84375 -34.84375 4.90625 -34.84375 L 7.09375 -34.578125 L 7.09375 -41.40625 C 7.09375 -42.425781 7.125 -43.175781 7.1875 -43.65625 C 7.257812 -44.144531 7.472656 -44.675781 7.828125 -45.25 C 8.398438 -46.363281 10.101562 -46.921875 12.9375 -46.921875 C 15.945312 -46.921875 17.738281 -46.097656 18.3125 -44.453125 C 18.53125 -43.753906 18.640625 -42.628906 18.640625 -41.078125 L 18.640625 -34.578125 C 20.585938 -34.753906 22.054688 -34.84375 23.046875 -34.84375 C 24.046875 -34.84375 24.800781 -34.804688 25.3125 -34.734375 C 25.820312 -34.671875 26.410156 -34.460938 27.078125 -34.109375 C 28.222656 -33.535156 28.796875 -31.832031 28.796875 -29 C 28.796875 -26.207031 28.203125 -24.503906 27.015625 -23.890625 C 26.347656 -23.578125 25.757812 -23.382812 25.25 -23.3125 C 24.738281 -23.25 23.972656 -23.21875 22.953125 -23.21875 Z M 22.953125 -23.21875 "/></g></g></g><g fill="#f1c90a" fill-opacity="1"><g transform="translate(274.79965, 219.691424)"><g><path d="M 22.953125 -23.21875 L 18.640625 -23.484375 L 18.640625 -14.328125 C 18.640625 -13.140625 18.828125 -12.28125 19.203125 -11.75 C 19.585938 -11.21875 20.296875 -10.953125 21.328125 -10.953125 C 22.367188 -10.953125 23.164062 -10.914062 23.71875 -10.84375 C 24.269531 -10.78125 24.859375 -10.570312 25.484375 -10.21875 C 26.503906 -9.644531 27.015625 -8.160156 27.015625 -5.765625 C 27.015625 -2.984375 26.394531 -1.28125 25.15625 -0.65625 C 24.488281 -0.351562 23.898438 -0.164062 23.390625 -0.09375 C 22.878906 -0.03125 22.140625 0 21.171875 0 C 16.566406 0 13.066406 -1.035156 10.671875 -3.109375 C 8.285156 -5.191406 7.09375 -8.710938 7.09375 -13.671875 L 7.09375 -23.484375 C 6.257812 -23.359375 5.351562 -23.296875 4.375 -23.296875 C 3.40625 -23.296875 2.597656 -23.671875 1.953125 -24.421875 C 1.316406 -25.171875 1 -26.453125 1 -28.265625 C 1 -30.078125 1.109375 -31.390625 1.328125 -32.203125 C 1.546875 -33.023438 1.851562 -33.613281 2.25 -33.96875 C 2.957031 -34.550781 3.84375 -34.84375 4.90625 -34.84375 L 7.09375 -34.578125 L 7.09375 -41.40625 C 7.09375 -42.425781 7.125 -43.175781 7.1875 -43.65625 C 7.257812 -44.144531 7.472656 -44.675781 7.828125 -45.25 C 8.398438 -46.363281 10.101562 -46.921875 12.9375 -46.921875 C 15.945312 -46.921875 17.738281 -46.097656 18.3125 -44.453125 C 18.53125 -43.753906 18.640625 -42.628906 18.640625 -41.078125 L 18.640625 -34.578125 C 20.585938 -34.753906 22.054688 -34.84375 23.046875 -34.84375 C 24.046875 -34.84375 24.800781 -34.804688 25.3125 -34.734375 C 25.820312 -34.671875 26.410156 -34.460938 27.078125 -34.109375 C 28.222656 -33.535156 28.796875 -31.832031 28.796875 -29 C 28.796875 -26.207031 28.203125 -24.503906 27.015625 -23.890625 C 26.347656 -23.578125 25.757812 -23.382812 25.25 -23.3125 C 24.738281 -23.25 23.972656 -23.21875 22.953125 -23.21875 Z M 22.953125 -23.21875 "/></g></g></g><g fill="#f1c90a" fill-opacity="1"><g transform="translate(304.591343, 219.691424)"><g><path d="M 35.171875 -34.578125 C 37.773438 -33.421875 39.078125 -32.023438 39.078125 -30.390625 C 39.078125 -29.597656 38.898438 -28.847656 38.546875 -28.140625 C 38.203125 -27.429688 38.03125 -27.054688 38.03125 -27.015625 L 20.640625 11.875 C 20.285156 12.71875 19.984375 13.359375 19.734375 13.796875 C 19.492188 14.242188 19.109375 14.664062 18.578125 15.0625 C 18.046875 15.457031 17.378906 15.65625 16.578125 15.65625 C 15.785156 15.65625 14.617188 15.328125 13.078125 14.671875 C 10.460938 13.515625 9.15625 12.140625 9.15625 10.546875 C 9.15625 9.484375 11.28125 4.421875 15.53125 -4.640625 L 2.328125 -26.875 C 1.441406 -28.332031 1 -29.414062 1 -30.125 C 1 -31.539062 2.191406 -32.957031 4.578125 -34.375 C 6.078125 -35.257812 7.25 -35.703125 8.09375 -35.703125 C 8.9375 -35.703125 9.625 -35.523438 10.15625 -35.171875 C 10.6875 -34.816406 11.070312 -34.453125 11.3125 -34.078125 C 11.550781 -33.703125 12.765625 -31.644531 14.953125 -27.90625 C 17.148438 -24.164062 19.242188 -20.679688 21.234375 -17.453125 C 21.453125 -18.160156 22.644531 -20.890625 24.8125 -25.640625 C 26.976562 -30.398438 28.140625 -32.929688 28.296875 -33.234375 C 28.453125 -33.546875 28.707031 -33.925781 29.0625 -34.375 C 29.632812 -35.125 30.441406 -35.5 31.484375 -35.5 C 32.523438 -35.5 33.753906 -35.191406 35.171875 -34.578125 Z M 35.171875 -34.578125 "/></g></g></g><g clip-path="url(#1ff7340f61)"><g clip-path="url(#2950e9f084)"><path fill="#ffffff" d="M 218.683594 154.917969 L 248.128906 154.917969 L 248.128906 184.359375 L 218.683594 184.359375 Z M 218.683594 154.917969 " fill-opacity="1" fill-rule="nonzero"/></g></g><g clip-path="url(#4908ee959e)"><path fill="#ed1c24" d="M 238.039062 183.035156 C 242.480469 180.734375 242.679688 173.457031 240.578125 172.660156 C 240.957031 174.085938 239.292969 175.171875 238.039062 176.570312 C 239.730469 171.816406 234.300781 167.066406 235.734375 163.769531 C 227.414062 168.585938 227.484375 179.890625 233.363281 182.992188 C 225.304688 181.453125 217.609375 172.570312 224.355469 161.019531 C 228.480469 153.960938 240.792969 145.96875 235.257812 137.40625 C 242.867188 141.871094 247.382812 152.355469 241.59375 166.285156 C 242.867188 165.871094 244.527344 163.269531 245.398438 159.597656 C 253.402344 166.921875 250.222656 181.226562 238.039062 183.035156 " fill-opacity="1" fill-rule="nonzero"/></g></svg>