<svg xmlns="http://www.w3.org/2000/svg" xmlns:xlink="http://www.w3.org/1999/xlink" width="500" zoomAndPan="magnify" viewBox="0 0 375 112.499997" height="150" preserveAspectRatio="xMidYMid meet" version="1.0"><defs><g/><clipPath id="48a5a43626"><path d="M 0.828125 0 L 374.167969 0 L 374.167969 112.003906 L 0.828125 112.003906 Z M 0.828125 0 " clip-rule="nonzero"/></clipPath><clipPath id="c705eab247"><path d="M 218.546875 24.199219 L 247.859375 24.199219 L 247.859375 53.515625 L 218.546875 53.515625 Z M 218.546875 24.199219 " clip-rule="nonzero"/></clipPath><clipPath id="a0fc438394"><path d="M 233.203125 24.199219 C 225.109375 24.199219 218.546875 30.761719 218.546875 38.859375 C 218.546875 46.953125 225.109375 53.515625 233.203125 53.515625 C 241.300781 53.515625 247.859375 46.953125 247.859375 38.859375 C 247.859375 30.761719 241.300781 24.199219 233.203125 24.199219 Z M 233.203125 24.199219 " clip-rule="nonzero"/></clipPath><clipPath id="71c2277648"><path d="M 221 6.792969 L 250 6.792969 L 250 52.339844 L 221 52.339844 Z M 221 6.792969 " clip-rule="nonzero"/></clipPath></defs><g clip-path="url(#48a5a43626)"><path fill="#ffffff" d="M 0.828125 0 L 374.171875 0 L 374.171875 112.003906 L 0.828125 112.003906 Z M 0.828125 0 " fill-opacity="1" fill-rule="nonzero"/><path fill="#ffffff" d="M 0.828125 0 L 374.171875 0 L 374.171875 112.003906 L 0.828125 112.003906 Z M 0.828125 0 " fill-opacity="1" fill-rule="nonzero"/></g><g fill="#f1c90a" fill-opacity="1"><g transform="translate(30.990962, 88.689424)"><g><path d="M 32.90625 -12.6875 L 34.09375 -13.546875 C 35.582031 -14.421875 36.640625 -14.859375 37.265625 -14.859375 C 38.628906 -14.859375 40.101562 -13.628906 41.6875 -11.171875 C 42.65625 -9.628906 43.140625 -8.394531 43.140625 -7.46875 C 43.140625 -6.539062 42.84375 -5.769531 42.25 -5.15625 C 41.65625 -4.539062 40.960938 -3.988281 40.171875 -3.5 C 39.378906 -3.019531 38.617188 -2.554688 37.890625 -2.109375 C 37.160156 -1.671875 35.671875 -1.097656 33.421875 -0.390625 C 31.179688 0.304688 29.015625 0.65625 26.921875 0.65625 C 24.828125 0.65625 22.710938 0.382812 20.578125 -0.15625 C 18.441406 -0.707031 16.238281 -1.632812 13.96875 -2.9375 C 11.695312 -4.238281 9.660156 -5.820312 7.859375 -7.6875 C 6.054688 -9.5625 4.570312 -11.960938 3.40625 -14.890625 C 2.238281 -17.828125 1.65625 -21.007812 1.65625 -24.4375 C 1.65625 -27.875 2.226562 -30.988281 3.375 -33.78125 C 4.519531 -36.582031 5.984375 -38.894531 7.765625 -40.71875 C 9.546875 -42.550781 11.582031 -44.082031 13.875 -45.3125 C 18.1875 -47.695312 22.523438 -48.890625 26.890625 -48.890625 C 28.960938 -48.890625 31.066406 -48.566406 33.203125 -47.921875 C 35.335938 -47.285156 36.953125 -46.640625 38.046875 -45.984375 L 39.640625 -45.046875 C 40.429688 -44.566406 41.046875 -44.171875 41.484375 -43.859375 C 42.628906 -42.941406 43.203125 -41.898438 43.203125 -40.734375 C 43.203125 -39.566406 42.738281 -38.34375 41.8125 -37.0625 C 40.09375 -34.6875 38.550781 -33.5 37.1875 -33.5 C 36.394531 -33.5 35.273438 -33.984375 33.828125 -34.953125 C 31.972656 -36.441406 29.503906 -37.1875 26.421875 -37.1875 C 23.554688 -37.1875 20.738281 -36.195312 17.96875 -34.21875 C 16.644531 -33.25 15.539062 -31.882812 14.65625 -30.125 C 13.78125 -28.363281 13.34375 -26.367188 13.34375 -24.140625 C 13.34375 -21.921875 13.78125 -19.929688 14.65625 -18.171875 C 15.539062 -16.410156 16.664062 -15.019531 18.03125 -14 C 20.71875 -12.0625 23.515625 -11.09375 26.421875 -11.09375 C 27.785156 -11.09375 29.070312 -11.269531 30.28125 -11.625 C 31.5 -11.976562 32.375 -12.332031 32.90625 -12.6875 Z M 32.90625 -12.6875 "/></g></g></g><g fill="#f1c90a" fill-opacity="1"><g transform="translate(75.844092, 88.689424)"><g><path d="M 1.65625 -17.375 C 1.65625 -22.65625 3.503906 -27.015625 7.203125 -30.453125 C 10.898438 -33.890625 15.125 -35.609375 19.875 -35.609375 C 24.632812 -35.609375 28.84375 -33.898438 32.5 -30.484375 C 36.15625 -27.078125 37.984375 -22.726562 37.984375 -17.4375 C 37.984375 -13.78125 37.035156 -10.53125 35.140625 -7.6875 C 33.242188 -4.851562 30.941406 -2.765625 28.234375 -1.421875 C 25.523438 -0.078125 22.71875 0.59375 19.8125 0.59375 C 16.90625 0.59375 14.085938 -0.117188 11.359375 -1.546875 C 8.628906 -2.984375 6.328125 -5.097656 4.453125 -7.890625 C 2.585938 -10.691406 1.65625 -13.851562 1.65625 -17.375 Z M 15.453125 -12.640625 C 16.867188 -11.566406 18.300781 -11.03125 19.75 -11.03125 C 21.207031 -11.03125 22.660156 -11.578125 24.109375 -12.671875 C 25.566406 -13.773438 26.296875 -15.40625 26.296875 -17.5625 C 26.296875 -19.726562 25.613281 -21.335938 24.25 -22.390625 C 22.882812 -23.453125 21.40625 -23.984375 19.8125 -23.984375 C 18.226562 -23.984375 16.753906 -23.429688 15.390625 -22.328125 C 14.023438 -21.222656 13.34375 -19.601562 13.34375 -17.46875 C 13.34375 -15.332031 14.046875 -13.722656 15.453125 -12.640625 Z M 15.453125 -12.640625 "/></g></g></g><g fill="#f1c90a" fill-opacity="1"><g transform="translate(115.478676, 88.689424)"><g><path d="M 14 -30.1875 C 16.070312 -33.3125 18.5625 -34.875 21.46875 -34.875 C 25.957031 -34.875 29.304688 -32.960938 31.515625 -29.140625 C 31.992188 -29.796875 32.570312 -30.484375 33.25 -31.203125 C 33.9375 -31.929688 35.03125 -32.722656 36.53125 -33.578125 C 38.03125 -34.441406 39.570312 -34.875 41.15625 -34.875 C 44.675781 -34.875 47.625 -33.519531 50 -30.8125 C 52.382812 -28.101562 53.578125 -23.625 53.578125 -17.375 L 53.578125 -5.8125 C 53.578125 -4.800781 53.539062 -4.039062 53.46875 -3.53125 C 53.40625 -3.03125 53.195312 -2.445312 52.84375 -1.78125 C 52.269531 -0.59375 50.578125 0 47.765625 0 C 44.984375 0 43.285156 -0.613281 42.671875 -1.84375 C 42.367188 -2.507812 42.179688 -3.09375 42.109375 -3.59375 C 42.046875 -4.101562 42.015625 -4.863281 42.015625 -5.875 L 42.015625 -17.4375 C 42.015625 -21.269531 40.648438 -23.1875 37.921875 -23.1875 C 36.378906 -23.1875 35.332031 -22.679688 34.78125 -21.671875 C 34.226562 -20.660156 33.953125 -19.226562 33.953125 -17.375 L 33.953125 -5.8125 C 33.953125 -4.757812 33.921875 -3.988281 33.859375 -3.5 C 33.796875 -3.019531 33.585938 -2.445312 33.234375 -1.78125 C 32.609375 -0.59375 30.890625 0 28.078125 0 C 25.304688 0 23.609375 -0.613281 22.984375 -1.84375 C 22.679688 -2.507812 22.492188 -3.09375 22.421875 -3.59375 C 22.359375 -4.101562 22.328125 -4.863281 22.328125 -5.875 L 22.328125 -17.4375 C 22.328125 -21.269531 20.960938 -23.1875 18.234375 -23.1875 C 15.585938 -23.1875 14.265625 -21.269531 14.265625 -17.4375 L 14.265625 -5.75 C 14.265625 -4.738281 14.234375 -3.976562 14.171875 -3.46875 C 14.109375 -2.957031 13.898438 -2.375 13.546875 -1.71875 C 12.878906 -0.570312 11.160156 0 8.390625 0 C 5.617188 0 3.921875 -0.59375 3.296875 -1.78125 C 2.992188 -2.445312 2.804688 -3.019531 2.734375 -3.5 C 2.671875 -3.988281 2.640625 -4.757812 2.640625 -5.8125 L 2.640625 -29.0625 C 2.640625 -30.082031 2.671875 -30.84375 2.734375 -31.34375 C 2.804688 -31.851562 3.019531 -32.414062 3.375 -33.03125 C 4.03125 -34.21875 5.59375 -34.8125 8.0625 -34.8125 C 10.53125 -34.8125 12.132812 -34.414062 12.875 -33.625 C 13.625 -32.832031 14 -31.6875 14 -30.1875 Z M 14 -30.1875 "/></g></g></g><g fill="#f1c90a" fill-opacity="1"><g transform="translate(171.693731, 88.689424)"><g><path d="M 14 -30.1875 C 16.070312 -33.3125 18.5625 -34.875 21.46875 -34.875 C 25.957031 -34.875 29.304688 -32.960938 31.515625 -29.140625 C 31.992188 -29.796875 32.570312 -30.484375 33.25 -31.203125 C 33.9375 -31.929688 35.03125 -32.722656 36.53125 -33.578125 C 38.03125 -34.441406 39.570312 -34.875 41.15625 -34.875 C 44.675781 -34.875 47.625 -33.519531 50 -30.8125 C 52.382812 -28.101562 53.578125 -23.625 53.578125 -17.375 L 53.578125 -5.8125 C 53.578125 -4.800781 53.539062 -4.039062 53.46875 -3.53125 C 53.40625 -3.03125 53.195312 -2.445312 52.84375 -1.78125 C 52.269531 -0.59375 50.578125 0 47.765625 0 C 44.984375 0 43.285156 -0.613281 42.671875 -1.84375 C 42.367188 -2.507812 42.179688 -3.09375 42.109375 -3.59375 C 42.046875 -4.101562 42.015625 -4.863281 42.015625 -5.875 L 42.015625 -17.4375 C 42.015625 -21.269531 40.648438 -23.1875 37.921875 -23.1875 C 36.378906 -23.1875 35.332031 -22.679688 34.78125 -21.671875 C 34.226562 -20.660156 33.953125 -19.226562 33.953125 -17.375 L 33.953125 -5.8125 C 33.953125 -4.757812 33.921875 -3.988281 33.859375 -3.5 C 33.796875 -3.019531 33.585938 -2.445312 33.234375 -1.78125 C 32.609375 -0.59375 30.890625 0 28.078125 0 C 25.304688 0 23.609375 -0.613281 22.984375 -1.84375 C 22.679688 -2.507812 22.492188 -3.09375 22.421875 -3.59375 C 22.359375 -4.101562 22.328125 -4.863281 22.328125 -5.875 L 22.328125 -17.4375 C 22.328125 -21.269531 20.960938 -23.1875 18.234375 -23.1875 C 15.585938 -23.1875 14.265625 -21.269531 14.265625 -17.4375 L 14.265625 -5.75 C 14.265625 -4.738281 14.234375 -3.976562 14.171875 -3.46875 C 14.109375 -2.957031 13.898438 -2.375 13.546875 -1.71875 C 12.878906 -0.570312 11.160156 0 8.390625 0 C 5.617188 0 3.921875 -0.59375 3.296875 -1.78125 C 2.992188 -2.445312 2.804688 -3.019531 2.734375 -3.5 C 2.671875 -3.988281 2.640625 -4.757812 2.640625 -5.8125 L 2.640625 -29.0625 C 2.640625 -30.082031 2.671875 -30.84375 2.734375 -31.34375 C 2.804688 -31.851562 3.019531 -32.414062 3.375 -33.03125 C 4.03125 -34.21875 5.59375 -34.8125 8.0625 -34.8125 C 10.53125 -34.8125 12.132812 -34.414062 12.875 -33.625 C 13.625 -32.832031 14 -31.6875 14 -30.1875 Z M 14 -30.1875 "/></g></g></g><g fill="#f1c90a" fill-opacity="1"><g transform="translate(227.908786, 88.689424)"><g><path d="M 2.640625 -29 C 2.640625 -30.007812 2.671875 -30.769531 2.734375 -31.28125 C 2.804688 -31.789062 2.992188 -32.375 3.296875 -33.03125 C 3.921875 -34.175781 5.640625 -34.75 8.453125 -34.75 C 10.566406 -34.75 12.066406 -34.375 12.953125 -33.625 C 13.703125 -33.007812 14.097656 -32.0625 14.140625 -30.78125 C 14.179688 -30.34375 14.203125 -29.707031 14.203125 -28.875 L 14.203125 -5.75 C 14.203125 -4.738281 14.164062 -3.976562 14.09375 -3.46875 C 14.03125 -2.957031 13.828125 -2.375 13.484375 -1.71875 C 12.910156 -0.570312 11.210938 0 8.390625 0 C 5.617188 0 3.921875 -0.59375 3.296875 -1.78125 C 2.992188 -2.445312 2.804688 -3.019531 2.734375 -3.5 C 2.671875 -3.988281 2.640625 -4.757812 2.640625 -5.8125 Z M 13.5 -41.25 C 13.175781 -40.613281 12.59375 -40.160156 11.75 -39.890625 C 10.914062 -39.628906 9.804688 -39.5 8.421875 -39.5 C 7.035156 -39.5 5.921875 -39.628906 5.078125 -39.890625 C 4.242188 -40.160156 3.660156 -40.625 3.328125 -41.28125 C 3.003906 -41.945312 2.804688 -42.53125 2.734375 -43.03125 C 2.671875 -43.539062 2.640625 -44.300781 2.640625 -45.3125 C 2.640625 -46.332031 2.671875 -47.09375 2.734375 -47.59375 C 2.804688 -48.101562 2.992188 -48.664062 3.296875 -49.28125 C 3.921875 -50.46875 5.640625 -51.0625 8.453125 -51.0625 C 11.234375 -51.0625 12.910156 -50.46875 13.484375 -49.28125 C 13.828125 -48.625 14.03125 -48.039062 14.09375 -47.53125 C 14.164062 -47.019531 14.203125 -46.257812 14.203125 -45.25 C 14.203125 -44.238281 14.164062 -43.476562 14.09375 -42.96875 C 14.03125 -42.46875 13.832031 -41.894531 13.5 -41.25 Z M 13.5 -41.25 "/></g></g></g><g fill="#f1c90a" fill-opacity="1"><g transform="translate(244.753496, 88.689424)"><g><path d="M 22.859375 -23.125 L 18.5625 -23.390625 L 18.5625 -14.265625 C 18.5625 -13.078125 18.75 -12.21875 19.125 -11.6875 C 19.5 -11.164062 20.203125 -10.90625 21.234375 -10.90625 C 22.273438 -10.90625 23.066406 -10.867188 23.609375 -10.796875 C 24.160156 -10.734375 24.75 -10.523438 25.375 -10.171875 C 26.382812 -9.597656 26.890625 -8.125 26.890625 -5.75 C 26.890625 -2.96875 26.269531 -1.269531 25.03125 -0.65625 C 24.375 -0.351562 23.789062 -0.164062 23.28125 -0.09375 C 22.78125 -0.03125 22.046875 0 21.078125 0 C 16.492188 0 13.007812 -1.03125 10.625 -3.09375 C 8.25 -5.164062 7.0625 -8.671875 7.0625 -13.609375 L 7.0625 -23.390625 C 6.226562 -23.253906 5.328125 -23.1875 4.359375 -23.1875 C 3.390625 -23.1875 2.582031 -23.5625 1.9375 -24.3125 C 1.300781 -25.0625 0.984375 -26.335938 0.984375 -28.140625 C 0.984375 -29.941406 1.09375 -31.25 1.3125 -32.0625 C 1.539062 -32.882812 1.851562 -33.472656 2.25 -33.828125 C 2.945312 -34.398438 3.828125 -34.6875 4.890625 -34.6875 L 7.0625 -34.421875 L 7.0625 -41.21875 C 7.0625 -42.238281 7.09375 -42.988281 7.15625 -43.46875 C 7.226562 -43.957031 7.441406 -44.484375 7.796875 -45.046875 C 8.367188 -46.148438 10.0625 -46.703125 12.875 -46.703125 C 15.875 -46.703125 17.660156 -45.890625 18.234375 -44.265625 C 18.453125 -43.554688 18.5625 -42.429688 18.5625 -40.890625 L 18.5625 -34.421875 C 20.5 -34.597656 21.960938 -34.6875 22.953125 -34.6875 C 23.941406 -34.6875 24.691406 -34.648438 25.203125 -34.578125 C 25.710938 -34.515625 26.296875 -34.304688 26.953125 -33.953125 C 28.097656 -33.378906 28.671875 -31.6875 28.671875 -28.875 C 28.671875 -26.09375 28.078125 -24.394531 26.890625 -23.78125 C 26.222656 -23.46875 25.632812 -23.28125 25.125 -23.21875 C 24.625 -23.15625 23.867188 -23.125 22.859375 -23.125 Z M 22.859375 -23.125 "/></g></g></g><g fill="#f1c90a" fill-opacity="1"><g transform="translate(274.413368, 88.689424)"><g><path d="M 22.859375 -23.125 L 18.5625 -23.390625 L 18.5625 -14.265625 C 18.5625 -13.078125 18.75 -12.21875 19.125 -11.6875 C 19.5 -11.164062 20.203125 -10.90625 21.234375 -10.90625 C 22.273438 -10.90625 23.066406 -10.867188 23.609375 -10.796875 C 24.160156 -10.734375 24.75 -10.523438 25.375 -10.171875 C 26.382812 -9.597656 26.890625 -8.125 26.890625 -5.75 C 26.890625 -2.96875 26.269531 -1.269531 25.03125 -0.65625 C 24.375 -0.351562 23.789062 -0.164062 23.28125 -0.09375 C 22.78125 -0.03125 22.046875 0 21.078125 0 C 16.492188 0 13.007812 -1.03125 10.625 -3.09375 C 8.25 -5.164062 7.0625 -8.671875 7.0625 -13.609375 L 7.0625 -23.390625 C 6.226562 -23.253906 5.328125 -23.1875 4.359375 -23.1875 C 3.390625 -23.1875 2.582031 -23.5625 1.9375 -24.3125 C 1.300781 -25.0625 0.984375 -26.335938 0.984375 -28.140625 C 0.984375 -29.941406 1.09375 -31.25 1.3125 -32.0625 C 1.539062 -32.882812 1.851562 -33.472656 2.25 -33.828125 C 2.945312 -34.398438 3.828125 -34.6875 4.890625 -34.6875 L 7.0625 -34.421875 L 7.0625 -41.21875 C 7.0625 -42.238281 7.09375 -42.988281 7.15625 -43.46875 C 7.226562 -43.957031 7.441406 -44.484375 7.796875 -45.046875 C 8.367188 -46.148438 10.0625 -46.703125 12.875 -46.703125 C 15.875 -46.703125 17.660156 -45.890625 18.234375 -44.265625 C 18.453125 -43.554688 18.5625 -42.429688 18.5625 -40.890625 L 18.5625 -34.421875 C 20.5 -34.597656 21.960938 -34.6875 22.953125 -34.6875 C 23.941406 -34.6875 24.691406 -34.648438 25.203125 -34.578125 C 25.710938 -34.515625 26.296875 -34.304688 26.953125 -33.953125 C 28.097656 -33.378906 28.671875 -31.6875 28.671875 -28.875 C 28.671875 -26.09375 28.078125 -24.394531 26.890625 -23.78125 C 26.222656 -23.46875 25.632812 -23.28125 25.125 -23.21875 C 24.625 -23.15625 23.867188 -23.125 22.859375 -23.125 Z M 22.859375 -23.125 "/></g></g></g><g fill="#f1c90a" fill-opacity="1"><g transform="translate(304.073239, 88.689424)"><g><path d="M 35.015625 -34.421875 C 37.609375 -33.273438 38.90625 -31.882812 38.90625 -30.25 C 38.90625 -29.457031 38.726562 -28.707031 38.375 -28 C 38.03125 -27.300781 37.859375 -26.929688 37.859375 -26.890625 L 20.546875 11.828125 C 20.191406 12.660156 19.894531 13.296875 19.65625 13.734375 C 19.414062 14.179688 19.03125 14.601562 18.5 15 C 17.96875 15.394531 17.304688 15.59375 16.515625 15.59375 C 15.722656 15.59375 14.554688 15.257812 13.015625 14.59375 C 10.410156 13.445312 9.109375 12.082031 9.109375 10.5 C 9.109375 9.445312 11.222656 4.40625 15.453125 -4.625 L 2.3125 -26.75 C 1.425781 -28.207031 0.984375 -29.289062 0.984375 -30 C 0.984375 -31.40625 2.175781 -32.8125 4.5625 -34.21875 C 6.050781 -35.101562 7.210938 -35.546875 8.046875 -35.546875 C 8.890625 -35.546875 9.578125 -35.367188 10.109375 -35.015625 C 10.640625 -34.660156 11.023438 -34.296875 11.265625 -33.921875 C 11.503906 -33.546875 12.710938 -31.5 14.890625 -27.78125 C 17.078125 -24.0625 19.160156 -20.59375 21.140625 -17.375 C 21.359375 -18.082031 22.546875 -20.800781 24.703125 -25.53125 C 26.859375 -30.269531 28.015625 -32.789062 28.171875 -33.09375 C 28.328125 -33.40625 28.582031 -33.78125 28.9375 -34.21875 C 29.507812 -34.96875 30.3125 -35.34375 31.34375 -35.34375 C 32.382812 -35.34375 33.609375 -35.035156 35.015625 -34.421875 Z M 35.015625 -34.421875 "/></g></g></g><g clip-path="url(#c705eab247)"><g clip-path="url(#a0fc438394)"><path fill="#ffffff" d="M 218.546875 24.199219 L 247.859375 24.199219 L 247.859375 53.515625 L 218.546875 53.515625 Z M 218.546875 24.199219 " fill-opacity="1" fill-rule="nonzero"/></g></g><g clip-path="url(#71c2277648)"><path fill="#ed1c24" d="M 237.816406 52.195312 C 242.234375 49.902344 242.433594 42.660156 240.34375 41.863281 C 240.71875 43.285156 239.0625 44.367188 237.816406 45.757812 C 239.5 41.027344 234.09375 36.296875 235.523438 33.015625 C 227.238281 37.808594 227.308594 49.066406 233.160156 52.15625 C 225.136719 50.621094 217.472656 41.777344 224.195312 30.277344 C 228.296875 23.246094 240.558594 15.292969 235.046875 6.769531 C 242.621094 11.210938 247.117188 21.652344 241.355469 35.519531 C 242.621094 35.109375 244.273438 32.519531 245.140625 28.859375 C 253.109375 36.152344 249.945312 50.394531 237.816406 52.195312 " fill-opacity="1" fill-rule="nonzero"/></g></svg>