<svg xmlns="https://www.w3.org/2000/svg" xmlns:xlink="https://www.w3.org/1999/xlink" width="500" zoomAndPan="magnify" viewBox="0 0 375 374.999991" height="500" preserveAspectRatio="xMidYMid meet" version="1.0"><defs><g/><clipPath id="e1e6070fec"><path d="M 7 12 L 292 12 L 292 363 L 7 363 Z M 7 12 " clip-rule="nonzero"/></clipPath><clipPath id="9c31b25b10"><path d="M -37.6875 312.300781 L 77.921875 -26.28125 L 337.4375 62.328125 L 221.828125 400.910156 Z M -37.6875 312.300781 " clip-rule="nonzero"/></clipPath><clipPath id="0e461adc65"><path d="M 20.058594 143.1875 C -11.832031 236.585938 20.40625 332.136719 92.070312 356.605469 C 163.730469 381.074219 247.679688 325.195312 279.570312 231.800781 C 311.460938 138.402344 279.21875 42.851562 207.558594 18.382812 C 135.894531 -6.089844 51.949219 49.789062 20.058594 143.1875 Z M 20.058594 143.1875 " clip-rule="nonzero"/></clipPath><clipPath id="9bb289eb2c"><path d="M 20 36 L 250 36 L 250 329 L 20 329 Z M 20 36 " clip-rule="nonzero"/></clipPath><clipPath id="953960bf6a"><path d="M -17.457031 288.59375 L 79.425781 4.855469 L 286.960938 75.71875 L 190.078125 359.460938 Z M -17.457031 288.59375 " clip-rule="nonzero"/></clipPath><clipPath id="da0a120682"><path d="M 30.941406 146.855469 C 4.210938 225.136719 29 304.457031 86.308594 324.027344 C 143.621094 343.597656 211.746094 296 238.476562 217.71875 C 265.207031 139.4375 240.414062 60.113281 183.105469 40.546875 C 125.796875 20.976562 57.667969 68.574219 30.941406 146.855469 Z M 30.941406 146.855469 " clip-rule="nonzero"/></clipPath><clipPath id="338431271f"><path d="M 145.300781 214.203125 L 343.144531 214.203125 L 343.144531 292.664062 L 145.300781 292.664062 Z M 145.300781 214.203125 " clip-rule="nonzero"/></clipPath><clipPath id="35316adaff"><path d="M 89 74.011719 L 183 74.011719 L 183 225.511719 L 89 225.511719 Z M 89 74.011719 " clip-rule="nonzero"/></clipPath></defs><rect x="-37.5" width="450" fill="#ffffff" y="-37.499999" height="449.999989" fill-opacity="1"/><rect x="-37.5" width="450" fill="#ffffff" y="-37.499999" height="449.999989" fill-opacity="1"/><g clip-path="url(#e1e6070fec)"><g clip-path="url(#9c31b25b10)"><g clip-path="url(#0e461adc65)"><path fill="#f1c90a" d="M -37.6875 312.300781 L 77.921875 -26.28125 L 337.4375 62.328125 L 221.828125 400.910156 Z M -37.6875 312.300781 " fill-opacity="1" fill-rule="nonzero"/></g></g></g><g clip-path="url(#9bb289eb2c)"><g clip-path="url(#953960bf6a)"><g clip-path="url(#da0a120682)"><path fill="#ffffff" d="M -17.457031 288.59375 L 79.425781 4.855469 L 286.960938 75.71875 L 190.078125 359.460938 Z M -17.457031 288.59375 " fill-opacity="1" fill-rule="nonzero"/></g></g></g><g clip-path="url(#338431271f)"><path fill="#ffffff" d="M 145.300781 214.203125 L 343.289062 214.203125 L 343.289062 292.664062 L 145.300781 292.664062 Z M 145.300781 214.203125 " fill-opacity="1" fill-rule="nonzero"/></g><g fill="#f1c90a" fill-opacity="1"><g transform="translate(48.898326, 281.935133)"><g><path d="M 2 -20.96875 C 2 -27.34375 4.226562 -32.601562 8.6875 -36.75 C 13.15625 -40.894531 18.257812 -42.96875 24 -42.96875 C 29.738281 -42.96875 34.8125 -40.90625 39.21875 -36.78125 C 43.632812 -32.664062 45.84375 -27.421875 45.84375 -21.046875 C 45.84375 -16.628906 44.695312 -12.707031 42.40625 -9.28125 C 40.125 -5.851562 37.347656 -3.328125 34.078125 -1.703125 C 30.804688 -0.0859375 27.414062 0.71875 23.90625 0.71875 C 20.40625 0.71875 17.003906 -0.144531 13.703125 -1.875 C 10.410156 -3.601562 7.632812 -6.15625 5.375 -9.53125 C 3.125 -12.90625 2 -16.71875 2 -20.96875 Z M 18.65625 -15.265625 C 20.351562 -13.960938 22.078125 -13.3125 23.828125 -13.3125 C 25.585938 -13.3125 27.34375 -13.972656 29.09375 -15.296875 C 30.851562 -16.628906 31.734375 -18.597656 31.734375 -21.203125 C 31.734375 -23.804688 30.90625 -25.742188 29.25 -27.015625 C 27.601562 -28.296875 25.820312 -28.9375 23.90625 -28.9375 C 22 -28.9375 20.222656 -28.269531 18.578125 -26.9375 C 16.929688 -25.613281 16.109375 -23.660156 16.109375 -21.078125 C 16.109375 -18.503906 16.957031 -16.566406 18.65625 -15.265625 Z M 18.65625 -15.265625 "/></g></g></g><g fill="#f1c90a" fill-opacity="1"><g transform="translate(96.724899, 281.935133)"><g><path d="M 16.90625 -36.4375 C 19.394531 -40.207031 22.394531 -42.09375 25.90625 -42.09375 C 31.332031 -42.09375 35.375 -39.78125 38.03125 -35.15625 C 38.613281 -35.957031 39.316406 -36.796875 40.140625 -37.671875 C 40.960938 -38.546875 42.273438 -39.5 44.078125 -40.53125 C 45.890625 -41.570312 47.753906 -42.09375 49.671875 -42.09375 C 53.921875 -42.09375 57.476562 -40.457031 60.34375 -37.1875 C 63.21875 -33.914062 64.65625 -28.507812 64.65625 -20.96875 L 64.65625 -7.015625 C 64.65625 -5.796875 64.613281 -4.878906 64.53125 -4.265625 C 64.445312 -3.648438 64.195312 -2.945312 63.78125 -2.15625 C 63.082031 -0.71875 61.035156 0 57.640625 0 C 54.285156 0 52.238281 -0.742188 51.5 -2.234375 C 51.125 -3.023438 50.894531 -3.726562 50.8125 -4.34375 C 50.738281 -4.957031 50.703125 -5.875 50.703125 -7.09375 L 50.703125 -21.046875 C 50.703125 -25.671875 49.054688 -27.984375 45.765625 -27.984375 C 43.898438 -27.984375 42.632812 -27.367188 41.96875 -26.140625 C 41.300781 -24.921875 40.96875 -23.195312 40.96875 -20.96875 L 40.96875 -7.015625 C 40.96875 -5.742188 40.925781 -4.8125 40.84375 -4.21875 C 40.769531 -3.632812 40.519531 -2.945312 40.09375 -2.15625 C 39.351562 -0.71875 37.28125 0 33.875 0 C 30.53125 0 28.484375 -0.742188 27.734375 -2.234375 C 27.367188 -3.023438 27.144531 -3.726562 27.0625 -4.34375 C 26.976562 -4.957031 26.9375 -5.875 26.9375 -7.09375 L 26.9375 -21.046875 C 26.9375 -25.671875 25.289062 -27.984375 22 -27.984375 C 18.8125 -27.984375 17.21875 -25.671875 17.21875 -21.046875 L 17.21875 -6.9375 C 17.21875 -5.71875 17.175781 -4.800781 17.09375 -4.1875 C 17.019531 -3.570312 16.769531 -2.867188 16.34375 -2.078125 C 15.539062 -0.691406 13.46875 0 10.125 0 C 6.78125 0 4.734375 -0.71875 3.984375 -2.15625 C 3.609375 -2.945312 3.378906 -3.632812 3.296875 -4.21875 C 3.222656 -4.8125 3.1875 -5.742188 3.1875 -7.015625 L 3.1875 -35.078125 C 3.1875 -36.296875 3.222656 -37.210938 3.296875 -37.828125 C 3.378906 -38.441406 3.632812 -39.117188 4.0625 -39.859375 C 4.863281 -41.296875 6.75 -42.015625 9.71875 -42.015625 C 12.695312 -42.015625 14.640625 -41.535156 15.546875 -40.578125 C 16.453125 -39.617188 16.90625 -38.238281 16.90625 -36.4375 Z M 16.90625 -36.4375 "/></g></g></g><g fill="#f1c90a" fill-opacity="1"><g transform="translate(164.558925, 281.935133)"><g><path d="M 16.90625 -36.4375 C 19.394531 -40.207031 22.394531 -42.09375 25.90625 -42.09375 C 31.332031 -42.09375 35.375 -39.78125 38.03125 -35.15625 C 38.613281 -35.957031 39.316406 -36.796875 40.140625 -37.671875 C 40.960938 -38.546875 42.273438 -39.5 44.078125 -40.53125 C 45.890625 -41.570312 47.753906 -42.09375 49.671875 -42.09375 C 53.921875 -42.09375 57.476562 -40.457031 60.34375 -37.1875 C 63.21875 -33.914062 64.65625 -28.507812 64.65625 -20.96875 L 64.65625 -7.015625 C 64.65625 -5.796875 64.613281 -4.878906 64.53125 -4.265625 C 64.445312 -3.648438 64.195312 -2.945312 63.78125 -2.15625 C 63.082031 -0.71875 61.035156 0 57.640625 0 C 54.285156 0 52.238281 -0.742188 51.5 -2.234375 C 51.125 -3.023438 50.894531 -3.726562 50.8125 -4.34375 C 50.738281 -4.957031 50.703125 -5.875 50.703125 -7.09375 L 50.703125 -21.046875 C 50.703125 -25.671875 49.054688 -27.984375 45.765625 -27.984375 C 43.898438 -27.984375 42.632812 -27.367188 41.96875 -26.140625 C 41.300781 -24.921875 40.96875 -23.195312 40.96875 -20.96875 L 40.96875 -7.015625 C 40.96875 -5.742188 40.925781 -4.8125 40.84375 -4.21875 C 40.769531 -3.632812 40.519531 -2.945312 40.09375 -2.15625 C 39.351562 -0.71875 37.28125 0 33.875 0 C 30.53125 0 28.484375 -0.742188 27.734375 -2.234375 C 27.367188 -3.023438 27.144531 -3.726562 27.0625 -4.34375 C 26.976562 -4.957031 26.9375 -5.875 26.9375 -7.09375 L 26.9375 -21.046875 C 26.9375 -25.671875 25.289062 -27.984375 22 -27.984375 C 18.8125 -27.984375 17.21875 -25.671875 17.21875 -21.046875 L 17.21875 -6.9375 C 17.21875 -5.71875 17.175781 -4.800781 17.09375 -4.1875 C 17.019531 -3.570312 16.769531 -2.867188 16.34375 -2.078125 C 15.539062 -0.691406 13.46875 0 10.125 0 C 6.78125 0 4.734375 -0.71875 3.984375 -2.15625 C 3.609375 -2.945312 3.378906 -3.632812 3.296875 -4.21875 C 3.222656 -4.8125 3.1875 -5.742188 3.1875 -7.015625 L 3.1875 -35.078125 C 3.1875 -36.296875 3.222656 -37.210938 3.296875 -37.828125 C 3.378906 -38.441406 3.632812 -39.117188 4.0625 -39.859375 C 4.863281 -41.296875 6.75 -42.015625 9.71875 -42.015625 C 12.695312 -42.015625 14.640625 -41.535156 15.546875 -40.578125 C 16.453125 -39.617188 16.90625 -38.238281 16.90625 -36.4375 Z M 16.90625 -36.4375 "/></g></g></g><g fill="#f1c90a" fill-opacity="1"><g transform="translate(232.392951, 281.935133)"><g><path d="M 3.1875 -35 C 3.1875 -36.21875 3.222656 -37.128906 3.296875 -37.734375 C 3.378906 -38.347656 3.609375 -39.054688 3.984375 -39.859375 C 4.734375 -41.242188 6.804688 -41.9375 10.203125 -41.9375 C 12.753906 -41.9375 14.5625 -41.484375 15.625 -40.578125 C 16.53125 -39.828125 17.007812 -38.6875 17.0625 -37.15625 C 17.113281 -36.625 17.140625 -35.851562 17.140625 -34.84375 L 17.140625 -6.9375 C 17.140625 -5.71875 17.097656 -4.800781 17.015625 -4.1875 C 16.941406 -3.570312 16.691406 -2.867188 16.265625 -2.078125 C 15.566406 -0.691406 13.519531 0 10.125 0 C 6.78125 0 4.734375 -0.71875 3.984375 -2.15625 C 3.609375 -2.945312 3.378906 -3.632812 3.296875 -4.21875 C 3.222656 -4.8125 3.1875 -5.742188 3.1875 -7.015625 Z M 16.296875 -49.78125 C 15.898438 -49.007812 15.195312 -48.460938 14.1875 -48.140625 C 13.175781 -47.828125 11.832031 -47.671875 10.15625 -47.671875 C 8.488281 -47.671875 7.148438 -47.828125 6.140625 -48.140625 C 5.128906 -48.460938 4.421875 -49.019531 4.015625 -49.8125 C 3.617188 -50.613281 3.378906 -51.320312 3.296875 -51.9375 C 3.222656 -52.550781 3.1875 -53.46875 3.1875 -54.6875 C 3.1875 -55.90625 3.222656 -56.820312 3.296875 -57.4375 C 3.378906 -58.050781 3.609375 -58.726562 3.984375 -59.46875 C 4.734375 -60.90625 6.804688 -61.625 10.203125 -61.625 C 13.546875 -61.625 15.566406 -60.90625 16.265625 -59.46875 C 16.691406 -58.675781 16.941406 -57.972656 17.015625 -57.359375 C 17.097656 -56.742188 17.140625 -55.828125 17.140625 -54.609375 C 17.140625 -53.390625 17.097656 -52.472656 17.015625 -51.859375 C 16.941406 -51.242188 16.703125 -50.550781 16.296875 -49.78125 Z M 16.296875 -49.78125 "/></g></g></g><g fill="#f1c90a" fill-opacity="1"><g transform="translate(252.719236, 281.935133)"><g><path d="M 27.578125 -27.90625 L 22.40625 -28.21875 L 22.40625 -17.21875 C 22.40625 -15.78125 22.628906 -14.742188 23.078125 -14.109375 C 23.523438 -13.472656 24.375 -13.15625 25.625 -13.15625 C 26.875 -13.15625 27.832031 -13.113281 28.5 -13.03125 C 29.164062 -12.957031 29.867188 -12.707031 30.609375 -12.28125 C 31.835938 -11.582031 32.453125 -9.800781 32.453125 -6.9375 C 32.453125 -3.582031 31.707031 -1.535156 30.21875 -0.796875 C 29.414062 -0.421875 28.707031 -0.191406 28.09375 -0.109375 C 27.488281 -0.0351562 26.601562 0 25.4375 0 C 19.90625 0 15.703125 -1.25 12.828125 -3.75 C 9.960938 -6.25 8.53125 -10.472656 8.53125 -16.421875 L 8.53125 -28.21875 C 7.519531 -28.0625 6.425781 -27.984375 5.25 -27.984375 C 4.082031 -27.984375 3.113281 -28.429688 2.34375 -29.328125 C 1.582031 -30.234375 1.203125 -31.773438 1.203125 -33.953125 C 1.203125 -36.140625 1.332031 -37.722656 1.59375 -38.703125 C 1.863281 -39.679688 2.234375 -40.382812 2.703125 -40.8125 C 3.554688 -41.507812 4.625 -41.859375 5.90625 -41.859375 L 8.53125 -41.53125 L 8.53125 -49.75 C 8.53125 -50.96875 8.566406 -51.867188 8.640625 -52.453125 C 8.722656 -53.035156 8.976562 -53.675781 9.40625 -54.375 C 10.09375 -55.695312 12.140625 -56.359375 15.546875 -56.359375 C 19.160156 -56.359375 21.3125 -55.375 22 -53.40625 C 22.269531 -52.5625 22.40625 -51.207031 22.40625 -49.34375 L 22.40625 -41.53125 C 24.738281 -41.75 26.503906 -41.859375 27.703125 -41.859375 C 28.898438 -41.859375 29.800781 -41.816406 30.40625 -41.734375 C 31.019531 -41.648438 31.726562 -41.394531 32.53125 -40.96875 C 33.90625 -40.28125 34.59375 -38.238281 34.59375 -34.84375 C 34.59375 -31.488281 33.878906 -29.441406 32.453125 -28.703125 C 31.648438 -28.328125 30.941406 -28.097656 30.328125 -28.015625 C 29.722656 -27.941406 28.804688 -27.90625 27.578125 -27.90625 Z M 27.578125 -27.90625 "/></g></g></g><g fill="#f1c90a" fill-opacity="1"><g transform="translate(288.50944, 281.935133)"><g><path d="M 27.578125 -27.90625 L 22.40625 -28.21875 L 22.40625 -17.21875 C 22.40625 -15.78125 22.628906 -14.742188 23.078125 -14.109375 C 23.523438 -13.472656 24.375 -13.15625 25.625 -13.15625 C 26.875 -13.15625 27.832031 -13.113281 28.5 -13.03125 C 29.164062 -12.957031 29.867188 -12.707031 30.609375 -12.28125 C 31.835938 -11.582031 32.453125 -9.800781 32.453125 -6.9375 C 32.453125 -3.582031 31.707031 -1.535156 30.21875 -0.796875 C 29.414062 -0.421875 28.707031 -0.191406 28.09375 -0.109375 C 27.488281 -0.0351562 26.601562 0 25.4375 0 C 19.90625 0 15.703125 -1.25 12.828125 -3.75 C 9.960938 -6.25 8.53125 -10.472656 8.53125 -16.421875 L 8.53125 -28.21875 C 7.519531 -28.0625 6.425781 -27.984375 5.25 -27.984375 C 4.082031 -27.984375 3.113281 -28.429688 2.34375 -29.328125 C 1.582031 -30.234375 1.203125 -31.773438 1.203125 -33.953125 C 1.203125 -36.140625 1.332031 -37.722656 1.59375 -38.703125 C 1.863281 -39.679688 2.234375 -40.382812 2.703125 -40.8125 C 3.554688 -41.507812 4.625 -41.859375 5.90625 -41.859375 L 8.53125 -41.53125 L 8.53125 -49.75 C 8.53125 -50.96875 8.566406 -51.867188 8.640625 -52.453125 C 8.722656 -53.035156 8.976562 -53.675781 9.40625 -54.375 C 10.09375 -55.695312 12.140625 -56.359375 15.546875 -56.359375 C 19.160156 -56.359375 21.3125 -55.375 22 -53.40625 C 22.269531 -52.5625 22.40625 -51.207031 22.40625 -49.34375 L 22.40625 -41.53125 C 24.738281 -41.75 26.503906 -41.859375 27.703125 -41.859375 C 28.898438 -41.859375 29.800781 -41.816406 30.40625 -41.734375 C 31.019531 -41.648438 31.726562 -41.394531 32.53125 -40.96875 C 33.90625 -40.28125 34.59375 -38.238281 34.59375 -34.84375 C 34.59375 -31.488281 33.878906 -29.441406 32.453125 -28.703125 C 31.648438 -28.328125 30.941406 -28.097656 30.328125 -28.015625 C 29.722656 -27.941406 28.804688 -27.90625 27.578125 -27.90625 Z M 27.578125 -27.90625 "/></g></g></g><g fill="#f1c90a" fill-opacity="1"><g transform="translate(324.299645, 281.935133)"><g><path d="M 42.25 -41.53125 C 45.382812 -40.144531 46.953125 -38.472656 46.953125 -36.515625 C 46.953125 -35.554688 46.738281 -34.648438 46.3125 -33.796875 C 45.882812 -32.953125 45.671875 -32.503906 45.671875 -32.453125 L 24.796875 14.265625 C 24.367188 15.273438 24.007812 16.046875 23.71875 16.578125 C 23.425781 17.109375 22.957031 17.613281 22.3125 18.09375 C 21.675781 18.570312 20.878906 18.8125 19.921875 18.8125 C 18.972656 18.8125 17.566406 18.414062 15.703125 17.625 C 12.566406 16.238281 11 14.585938 11 12.671875 C 11 11.398438 13.550781 5.316406 18.65625 -5.578125 L 2.796875 -32.28125 C 1.734375 -34.039062 1.203125 -35.34375 1.203125 -36.1875 C 1.203125 -37.894531 2.632812 -39.597656 5.5 -41.296875 C 7.3125 -42.359375 8.71875 -42.890625 9.71875 -42.890625 C 10.726562 -42.890625 11.550781 -42.675781 12.1875 -42.25 C 12.832031 -41.820312 13.300781 -41.382812 13.59375 -40.9375 C 13.882812 -40.488281 15.34375 -38.015625 17.96875 -33.515625 C 20.601562 -29.023438 23.117188 -24.84375 25.515625 -20.96875 C 25.773438 -21.8125 27.207031 -25.085938 29.8125 -30.796875 C 32.414062 -36.515625 33.8125 -39.5625 34 -39.9375 C 34.1875 -40.3125 34.492188 -40.765625 34.921875 -41.296875 C 35.609375 -42.203125 36.578125 -42.65625 37.828125 -42.65625 C 39.078125 -42.65625 40.550781 -42.28125 42.25 -41.53125 Z M 42.25 -41.53125 "/></g></g></g><g clip-path="url(#35316adaff)"><path fill="#ed1c24" d="M 143.15625 225.574219 C 157.910156 217.921875 158.570312 193.738281 151.597656 191.085938 C 152.847656 195.828125 147.320312 199.441406 143.15625 204.085938 C 148.78125 188.292969 130.726562 172.503906 135.5 161.550781 C 107.851562 177.550781 108.082031 215.125 127.613281 225.433594 C 100.832031 220.316406 75.257812 190.796875 97.683594 152.40625 C 111.386719 128.945312 152.308594 102.394531 133.910156 73.9375 C 159.199219 88.769531 174.203125 123.617188 154.96875 169.910156 C 159.199219 168.53125 164.714844 159.886719 167.613281 147.679688 C 194.207031 172.023438 183.644531 219.554688 143.15625 225.574219 " fill-opacity="1" fill-rule="nonzero"/></g></svg>